<mxfile host="65bd71144e" pages="2">
    <diagram name="Page-1" id="zZ-8rdlPcp98Wl39RJ5v">
        <mxGraphModel dx="1580" dy="1536" grid="0" gridSize="10" guides="1" tooltips="1" connect="1" arrows="1" fold="1" page="1" pageScale="1" pageWidth="1169" pageHeight="827" background="#ffffff" math="0" shadow="0">
            <root>
                <mxCell id="0"/>
                <mxCell id="1" parent="0"/>
                <mxCell id="tifazpjDE2btZjvxW9_s-4" value="R" style="ellipse;whiteSpace=wrap;html=1;aspect=fixed;" parent="1" vertex="1">
                    <mxGeometry x="667" y="350" width="50" height="50" as="geometry"/>
                </mxCell>
                <mxCell id="tifazpjDE2btZjvxW9_s-9" value="" style="group" parent="1" connectable="0" vertex="1">
                    <mxGeometry x="902" y="245" width="86" height="241" as="geometry"/>
                </mxCell>
                <mxCell id="tifazpjDE2btZjvxW9_s-5" value="Node N2" style="rounded=0;whiteSpace=wrap;html=1;" parent="tifazpjDE2btZjvxW9_s-9" vertex="1">
                    <mxGeometry x="6" y="18" width="80" height="40" as="geometry"/>
                </mxCell>
                <mxCell id="tifazpjDE2btZjvxW9_s-7" value="0x2&lt;span style=&quot;background-color: transparent; color: light-dark(rgb(0, 0, 0), rgb(255, 255, 255));&quot;&gt;A&lt;/span&gt;" style="text;html=1;align=center;verticalAlign=middle;whiteSpace=wrap;rounded=0;" parent="tifazpjDE2btZjvxW9_s-9" vertex="1">
                    <mxGeometry x="16" y="-15" width="60" height="30" as="geometry"/>
                </mxCell>
                <mxCell id="tifazpjDE2btZjvxW9_s-8" value="N2" style="text;html=1;align=center;verticalAlign=middle;whiteSpace=wrap;rounded=0;" parent="tifazpjDE2btZjvxW9_s-9" vertex="1">
                    <mxGeometry x="16" y="64" width="60" height="30" as="geometry"/>
                </mxCell>
                <mxCell id="tifazpjDE2btZjvxW9_s-15" value="" style="group" parent="tifazpjDE2btZjvxW9_s-9" connectable="0" vertex="1">
                    <mxGeometry x="6" y="90" width="80" height="146" as="geometry"/>
                </mxCell>
                <mxCell id="tifazpjDE2btZjvxW9_s-16" value="Node N3" style="rounded=0;whiteSpace=wrap;html=1;" parent="tifazpjDE2btZjvxW9_s-15" vertex="1">
                    <mxGeometry y="40" width="80" height="40" as="geometry"/>
                </mxCell>
                <mxCell id="tifazpjDE2btZjvxW9_s-17" value="0x2B" style="text;html=1;align=center;verticalAlign=middle;whiteSpace=wrap;rounded=0;" parent="tifazpjDE2btZjvxW9_s-15" vertex="1">
                    <mxGeometry x="12" y="8" width="60" height="30" as="geometry"/>
                </mxCell>
                <mxCell id="tifazpjDE2btZjvxW9_s-18" value="N3" style="text;html=1;align=center;verticalAlign=middle;whiteSpace=wrap;rounded=0;" parent="tifazpjDE2btZjvxW9_s-15" vertex="1">
                    <mxGeometry x="10" y="86" width="60" height="30" as="geometry"/>
                </mxCell>
                <mxCell id="VPzIo7FBqQ-fRi8dtiya-3" value="0x2C" style="text;html=1;align=center;verticalAlign=middle;whiteSpace=wrap;rounded=0;" parent="tifazpjDE2btZjvxW9_s-15" vertex="1">
                    <mxGeometry x="10" y="116" width="60" height="30" as="geometry"/>
                </mxCell>
                <mxCell id="tifazpjDE2btZjvxW9_s-10" value="0x21&lt;div&gt;R2&lt;/div&gt;" style="text;html=1;align=center;verticalAlign=middle;whiteSpace=wrap;rounded=0;" parent="1" vertex="1">
                    <mxGeometry x="701" y="330" width="60" height="30" as="geometry"/>
                </mxCell>
                <mxCell id="tifazpjDE2btZjvxW9_s-13" value="" style="endArrow=classic;startArrow=classic;html=1;rounded=0;exitX=1;exitY=0.5;exitDx=0;exitDy=0;" parent="1" source="tifazpjDE2btZjvxW9_s-4" edge="1">
                    <mxGeometry width="50" height="50" relative="1" as="geometry">
                        <mxPoint x="837" y="355" as="sourcePoint"/>
                        <mxPoint x="902" y="287" as="targetPoint"/>
                    </mxGeometry>
                </mxCell>
                <mxCell id="tifazpjDE2btZjvxW9_s-19" value="" style="endArrow=classic;startArrow=classic;html=1;rounded=0;exitX=1;exitY=0.5;exitDx=0;exitDy=0;entryX=0;entryY=0.5;entryDx=0;entryDy=0;" parent="1" source="tifazpjDE2btZjvxW9_s-4" target="tifazpjDE2btZjvxW9_s-16" edge="1">
                    <mxGeometry width="50" height="50" relative="1" as="geometry">
                        <mxPoint x="727" y="385" as="sourcePoint"/>
                        <mxPoint x="897" y="315" as="targetPoint"/>
                    </mxGeometry>
                </mxCell>
                <mxCell id="tifazpjDE2btZjvxW9_s-20" value="" style="endArrow=classic;startArrow=classic;html=1;rounded=0;exitX=0.5;exitY=0;exitDx=0;exitDy=0;" parent="1" source="tifazpjDE2btZjvxW9_s-23" edge="1">
                    <mxGeometry width="50" height="50" relative="1" as="geometry">
                        <mxPoint x="687" y="555" as="sourcePoint"/>
                        <mxPoint x="687" y="395" as="targetPoint"/>
                    </mxGeometry>
                </mxCell>
                <mxCell id="tifazpjDE2btZjvxW9_s-25" value="&lt;div&gt;&lt;br&gt;&lt;/div&gt;&lt;div&gt;&lt;br&gt;&lt;/div&gt;" style="edgeLabel;html=1;align=center;verticalAlign=middle;resizable=0;points=[];" parent="tifazpjDE2btZjvxW9_s-20" connectable="0" vertex="1">
                    <mxGeometry x="0.0338" y="-1" relative="1" as="geometry">
                        <mxPoint as="offset"/>
                    </mxGeometry>
                </mxCell>
                <mxCell id="tifazpjDE2btZjvxW9_s-23" value="R" style="ellipse;whiteSpace=wrap;html=1;aspect=fixed;" parent="1" vertex="1">
                    <mxGeometry x="557" y="605" width="50" height="50" as="geometry"/>
                </mxCell>
                <mxCell id="tifazpjDE2btZjvxW9_s-27" value="" style="group" parent="1" connectable="0" vertex="1">
                    <mxGeometry x="334" y="571" width="223" height="120" as="geometry"/>
                </mxCell>
                <mxCell id="tifazpjDE2btZjvxW9_s-28" value="Node N10" style="rounded=0;whiteSpace=wrap;html=1;" parent="tifazpjDE2btZjvxW9_s-27" vertex="1">
                    <mxGeometry y="40" width="80" height="40" as="geometry"/>
                </mxCell>
                <mxCell id="tifazpjDE2btZjvxW9_s-29" value="0x5A" style="text;html=1;align=center;verticalAlign=middle;whiteSpace=wrap;rounded=0;" parent="tifazpjDE2btZjvxW9_s-27" vertex="1">
                    <mxGeometry x="10" width="60" height="30" as="geometry"/>
                </mxCell>
                <mxCell id="tifazpjDE2btZjvxW9_s-30" value="NA" style="text;html=1;align=center;verticalAlign=middle;whiteSpace=wrap;rounded=0;" parent="tifazpjDE2btZjvxW9_s-27" vertex="1">
                    <mxGeometry x="10" y="90" width="60" height="30" as="geometry"/>
                </mxCell>
                <mxCell id="tifazpjDE2btZjvxW9_s-40" value="0x51&lt;div&gt;R5&lt;/div&gt;" style="text;html=1;align=center;verticalAlign=middle;whiteSpace=wrap;rounded=0;" parent="tifazpjDE2btZjvxW9_s-27" vertex="1">
                    <mxGeometry x="153" y="30" width="60" height="30" as="geometry"/>
                </mxCell>
                <mxCell id="tifazpjDE2btZjvxW9_s-47" style="edgeStyle=orthogonalEdgeStyle;rounded=0;orthogonalLoop=1;jettySize=auto;html=1;entryX=0;entryY=0.5;entryDx=0;entryDy=0;startArrow=block;startFill=1;" parent="1" source="tifazpjDE2btZjvxW9_s-42" target="tifazpjDE2btZjvxW9_s-43" edge="1">
                    <mxGeometry relative="1" as="geometry"/>
                </mxCell>
                <mxCell id="tifazpjDE2btZjvxW9_s-42" value="R" style="ellipse;whiteSpace=wrap;html=1;aspect=fixed;" parent="1" vertex="1">
                    <mxGeometry x="838" y="605" width="50" height="50" as="geometry"/>
                </mxCell>
                <mxCell id="tifazpjDE2btZjvxW9_s-43" value="Node N11" style="rounded=0;whiteSpace=wrap;html=1;" parent="1" vertex="1">
                    <mxGeometry x="984" y="610" width="80" height="40" as="geometry"/>
                </mxCell>
                <mxCell id="tifazpjDE2btZjvxW9_s-44" value="0x8A" style="text;html=1;align=center;verticalAlign=middle;whiteSpace=wrap;rounded=0;" parent="1" vertex="1">
                    <mxGeometry x="1000" y="578" width="60" height="30" as="geometry"/>
                </mxCell>
                <mxCell id="tifazpjDE2btZjvxW9_s-46" value="NB" style="text;html=1;align=center;verticalAlign=middle;whiteSpace=wrap;rounded=0;" parent="1" vertex="1">
                    <mxGeometry x="1006" y="656" width="60" height="30" as="geometry"/>
                </mxCell>
                <mxCell id="tifazpjDE2btZjvxW9_s-48" value="0x81&lt;div&gt;R8&lt;/div&gt;" style="text;html=1;align=center;verticalAlign=middle;whiteSpace=wrap;rounded=0;" parent="1" vertex="1">
                    <mxGeometry x="885" y="587" width="60" height="30" as="geometry"/>
                </mxCell>
                <mxCell id="tifazpjDE2btZjvxW9_s-51" value="" style="endArrow=classic;startArrow=classic;html=1;rounded=0;entryX=0;entryY=0.5;entryDx=0;entryDy=0;exitX=1;exitY=0.5;exitDx=0;exitDy=0;" parent="1" source="tifazpjDE2btZjvxW9_s-23" target="tifazpjDE2btZjvxW9_s-42" edge="1">
                    <mxGeometry width="50" height="50" relative="1" as="geometry">
                        <mxPoint x="676" y="637" as="sourcePoint"/>
                        <mxPoint x="726" y="587" as="targetPoint"/>
                    </mxGeometry>
                </mxCell>
                <mxCell id="tifazpjDE2btZjvxW9_s-52" value="&lt;div&gt;&lt;br&gt;&lt;/div&gt;&lt;div&gt;&lt;br&gt;&lt;/div&gt;" style="edgeLabel;html=1;align=center;verticalAlign=middle;resizable=0;points=[];" parent="tifazpjDE2btZjvxW9_s-51" connectable="0" vertex="1">
                    <mxGeometry x="0.2278" y="4" relative="1" as="geometry">
                        <mxPoint as="offset"/>
                    </mxGeometry>
                </mxCell>
                <mxCell id="_alYZrNDyVorHaTwhTtV-1" value="0x31&lt;div&gt;R3&lt;/div&gt;" style="text;html=1;align=center;verticalAlign=middle;whiteSpace=wrap;rounded=0;" parent="1" vertex="1">
                    <mxGeometry x="667" y="423" width="60" height="30" as="geometry"/>
                </mxCell>
                <mxCell id="_alYZrNDyVorHaTwhTtV-2" value="0x61&lt;div&gt;R6&lt;/div&gt;" style="text;html=1;align=center;verticalAlign=middle;whiteSpace=wrap;rounded=0;" parent="1" vertex="1">
                    <mxGeometry x="623" y="594" width="60" height="30" as="geometry"/>
                </mxCell>
                <mxCell id="_alYZrNDyVorHaTwhTtV-3" value="0x71&lt;div&gt;R7&lt;/div&gt;" style="text;html=1;align=center;verticalAlign=middle;whiteSpace=wrap;rounded=0;" parent="1" vertex="1">
                    <mxGeometry x="780" y="589" width="60" height="30" as="geometry"/>
                </mxCell>
                <mxCell id="NNcS9Afo3pm0tOMD9eUi-1" value="0x41&lt;div&gt;R4&lt;/div&gt;" style="text;html=1;align=center;verticalAlign=middle;whiteSpace=wrap;rounded=0;" parent="1" vertex="1">
                    <mxGeometry x="543" y="557" width="60" height="30" as="geometry"/>
                </mxCell>
                <mxCell id="tifazpjDE2btZjvxW9_s-11" value="" style="endArrow=classic;startArrow=classic;html=1;rounded=0;entryX=0;entryY=0.5;entryDx=0;entryDy=0;exitX=1;exitY=0.5;exitDx=0;exitDy=0;" parent="1" source="tifazpjDE2btZjvxW9_s-1" target="tifazpjDE2btZjvxW9_s-4" edge="1">
                    <mxGeometry width="50" height="50" relative="1" as="geometry">
                        <mxPoint x="595" y="447" as="sourcePoint"/>
                        <mxPoint x="625" y="297" as="targetPoint"/>
                    </mxGeometry>
                </mxCell>
                <mxCell id="z805YUdc8V3EaDz0sNSZ-3" value="" style="endArrow=classic;startArrow=classic;html=1;rounded=0;entryX=0;entryY=0.5;entryDx=0;entryDy=0;exitX=1;exitY=0.5;exitDx=0;exitDy=0;" parent="1" source="CwtibKsyJ3mc2L3lF5Jl-1" target="tifazpjDE2btZjvxW9_s-4" edge="1">
                    <mxGeometry width="50" height="50" relative="1" as="geometry">
                        <mxPoint x="495" y="307" as="sourcePoint"/>
                        <mxPoint x="684" y="367" as="targetPoint"/>
                    </mxGeometry>
                </mxCell>
                <mxCell id="tifazpjDE2btZjvxW9_s-32" value="" style="endArrow=classic;startArrow=classic;html=1;rounded=0;entryX=0;entryY=0.5;entryDx=0;entryDy=0;" parent="1" source="tifazpjDE2btZjvxW9_s-28" target="tifazpjDE2btZjvxW9_s-23" edge="1">
                    <mxGeometry width="50" height="50" relative="1" as="geometry">
                        <mxPoint x="524" y="781" as="sourcePoint"/>
                        <mxPoint x="549" y="635" as="targetPoint"/>
                    </mxGeometry>
                </mxCell>
                <mxCell id="VPzIo7FBqQ-fRi8dtiya-1" value="" style="endArrow=classic;startArrow=classic;html=1;rounded=0;" parent="1" edge="1">
                    <mxGeometry width="50" height="50" relative="1" as="geometry">
                        <mxPoint x="717" y="378" as="sourcePoint"/>
                        <mxPoint x="898" y="473" as="targetPoint"/>
                    </mxGeometry>
                </mxCell>
                <mxCell id="VPzIo7FBqQ-fRi8dtiya-2" value="Node N9" style="rounded=0;whiteSpace=wrap;html=1;" parent="1" vertex="1">
                    <mxGeometry x="905" y="481" width="80" height="40" as="geometry"/>
                </mxCell>
                <mxCell id="VPzIo7FBqQ-fRi8dtiya-4" value="N9" style="text;html=1;align=center;verticalAlign=middle;whiteSpace=wrap;rounded=0;" parent="1" vertex="1">
                    <mxGeometry x="915" y="531" width="60" height="30" as="geometry"/>
                </mxCell>
                <mxCell id="VPzIo7FBqQ-fRi8dtiya-8" value="Client" style="text;html=1;align=center;verticalAlign=middle;whiteSpace=wrap;rounded=0;" parent="1" vertex="1">
                    <mxGeometry x="1006" y="267" width="60" height="30" as="geometry"/>
                </mxCell>
                <mxCell id="VPzIo7FBqQ-fRi8dtiya-9" value="Server" style="text;html=1;align=center;verticalAlign=middle;whiteSpace=wrap;rounded=0;" parent="1" vertex="1">
                    <mxGeometry x="1011" y="379" width="60" height="30" as="geometry"/>
                </mxCell>
                <mxCell id="VPzIo7FBqQ-fRi8dtiya-10" value="Hijacker" style="text;html=1;align=center;verticalAlign=middle;whiteSpace=wrap;rounded=0;" parent="1" vertex="1">
                    <mxGeometry x="1015" y="486" width="60" height="30" as="geometry"/>
                </mxCell>
                <mxCell id="X1Nxa9oFLayu3D9udZwb-14" value="" style="group" parent="1" connectable="0" vertex="1">
                    <mxGeometry x="246" y="393" width="80" height="100" as="geometry"/>
                </mxCell>
                <mxCell id="X1Nxa9oFLayu3D9udZwb-5" value="Node N7" style="rounded=0;whiteSpace=wrap;html=1;" parent="X1Nxa9oFLayu3D9udZwb-14" vertex="1">
                    <mxGeometry y="30" width="80" height="40" as="geometry"/>
                </mxCell>
                <mxCell id="X1Nxa9oFLayu3D9udZwb-9" value="0x1E" style="text;html=1;align=center;verticalAlign=middle;whiteSpace=wrap;rounded=0;" parent="X1Nxa9oFLayu3D9udZwb-14" vertex="1">
                    <mxGeometry x="10" width="60" height="30" as="geometry"/>
                </mxCell>
                <mxCell id="X1Nxa9oFLayu3D9udZwb-10" value="N7" style="text;html=1;align=center;verticalAlign=middle;whiteSpace=wrap;rounded=0;" parent="X1Nxa9oFLayu3D9udZwb-14" vertex="1">
                    <mxGeometry x="10" y="70" width="60" height="30" as="geometry"/>
                </mxCell>
                <mxCell id="X1Nxa9oFLayu3D9udZwb-16" value="" style="group" parent="1" connectable="0" vertex="1">
                    <mxGeometry x="246" y="293" width="80" height="100" as="geometry"/>
                </mxCell>
                <mxCell id="X1Nxa9oFLayu3D9udZwb-4" value="Node N6" style="rounded=0;whiteSpace=wrap;html=1;" parent="X1Nxa9oFLayu3D9udZwb-16" vertex="1">
                    <mxGeometry y="30" width="80" height="40" as="geometry"/>
                </mxCell>
                <mxCell id="X1Nxa9oFLayu3D9udZwb-8" value="0x1D" style="text;html=1;align=center;verticalAlign=middle;whiteSpace=wrap;rounded=0;" parent="X1Nxa9oFLayu3D9udZwb-16" vertex="1">
                    <mxGeometry x="10" width="60" height="30" as="geometry"/>
                </mxCell>
                <mxCell id="X1Nxa9oFLayu3D9udZwb-15" value="N6" style="text;html=1;align=center;verticalAlign=middle;whiteSpace=wrap;rounded=0;" parent="X1Nxa9oFLayu3D9udZwb-16" vertex="1">
                    <mxGeometry x="10" y="70" width="60" height="30" as="geometry"/>
                </mxCell>
                <mxCell id="X1Nxa9oFLayu3D9udZwb-18" value="" style="group" parent="1" connectable="0" vertex="1">
                    <mxGeometry x="244" y="208" width="80" height="100" as="geometry"/>
                </mxCell>
                <mxCell id="X1Nxa9oFLayu3D9udZwb-3" value="Node N5" style="rounded=0;whiteSpace=wrap;html=1;" parent="X1Nxa9oFLayu3D9udZwb-18" vertex="1">
                    <mxGeometry y="30" width="80" height="40" as="geometry"/>
                </mxCell>
                <mxCell id="X1Nxa9oFLayu3D9udZwb-7" value="0x1C" style="text;html=1;align=center;verticalAlign=middle;whiteSpace=wrap;rounded=0;" parent="X1Nxa9oFLayu3D9udZwb-18" vertex="1">
                    <mxGeometry x="10" width="60" height="30" as="geometry"/>
                </mxCell>
                <mxCell id="X1Nxa9oFLayu3D9udZwb-17" value="N5" style="text;html=1;align=center;verticalAlign=middle;whiteSpace=wrap;rounded=0;" parent="X1Nxa9oFLayu3D9udZwb-18" vertex="1">
                    <mxGeometry x="10" y="70" width="60" height="30" as="geometry"/>
                </mxCell>
                <mxCell id="X1Nxa9oFLayu3D9udZwb-20" value="" style="group" parent="1" connectable="0" vertex="1">
                    <mxGeometry x="307" y="447" width="80" height="100" as="geometry"/>
                </mxCell>
                <mxCell id="X1Nxa9oFLayu3D9udZwb-2" value="Node N8" style="rounded=0;whiteSpace=wrap;html=1;" parent="X1Nxa9oFLayu3D9udZwb-20" vertex="1">
                    <mxGeometry y="30" width="80" height="40" as="geometry"/>
                </mxCell>
                <mxCell id="X1Nxa9oFLayu3D9udZwb-6" value="0x1F" style="text;html=1;align=center;verticalAlign=middle;whiteSpace=wrap;rounded=0;" parent="X1Nxa9oFLayu3D9udZwb-20" vertex="1">
                    <mxGeometry x="10" width="60" height="30" as="geometry"/>
                </mxCell>
                <mxCell id="X1Nxa9oFLayu3D9udZwb-19" value="N8" style="text;html=1;align=center;verticalAlign=middle;whiteSpace=wrap;rounded=0;" parent="X1Nxa9oFLayu3D9udZwb-20" vertex="1">
                    <mxGeometry x="10" y="70" width="60" height="30" as="geometry"/>
                </mxCell>
                <mxCell id="X1Nxa9oFLayu3D9udZwb-21" value="" style="group" parent="1" connectable="0" vertex="1">
                    <mxGeometry x="324" y="57" width="80" height="100" as="geometry"/>
                </mxCell>
                <mxCell id="tifazpjDE2btZjvxW9_s-1" value="Node N1" style="rounded=0;whiteSpace=wrap;html=1;" parent="X1Nxa9oFLayu3D9udZwb-21" vertex="1">
                    <mxGeometry y="30" width="80" height="40" as="geometry"/>
                </mxCell>
                <mxCell id="tifazpjDE2btZjvxW9_s-2" value="0x1A" style="text;html=1;align=center;verticalAlign=middle;whiteSpace=wrap;rounded=0;" parent="X1Nxa9oFLayu3D9udZwb-21" vertex="1">
                    <mxGeometry x="10" width="60" height="30" as="geometry"/>
                </mxCell>
                <mxCell id="tifazpjDE2btZjvxW9_s-3" value="N1" style="text;html=1;align=center;verticalAlign=middle;whiteSpace=wrap;rounded=0;" parent="X1Nxa9oFLayu3D9udZwb-21" vertex="1">
                    <mxGeometry x="10" y="70" width="60" height="30" as="geometry"/>
                </mxCell>
                <mxCell id="X1Nxa9oFLayu3D9udZwb-23" value="" style="endArrow=classic;startArrow=classic;html=1;rounded=0;entryX=0;entryY=0.5;entryDx=0;entryDy=0;exitX=1;exitY=0.5;exitDx=0;exitDy=0;" parent="1" source="X1Nxa9oFLayu3D9udZwb-2" target="tifazpjDE2btZjvxW9_s-4" edge="1">
                    <mxGeometry width="50" height="50" relative="1" as="geometry">
                        <mxPoint x="496" y="318" as="sourcePoint"/>
                        <mxPoint x="677" y="385" as="targetPoint"/>
                    </mxGeometry>
                </mxCell>
                <mxCell id="X1Nxa9oFLayu3D9udZwb-24" value="" style="endArrow=classic;startArrow=classic;html=1;rounded=0;exitX=1;exitY=0.5;exitDx=0;exitDy=0;entryX=0;entryY=0.5;entryDx=0;entryDy=0;" parent="1" source="X1Nxa9oFLayu3D9udZwb-3" target="tifazpjDE2btZjvxW9_s-4" edge="1">
                    <mxGeometry width="50" height="50" relative="1" as="geometry">
                        <mxPoint x="496" y="357" as="sourcePoint"/>
                        <mxPoint x="670" y="304" as="targetPoint"/>
                    </mxGeometry>
                </mxCell>
                <mxCell id="X1Nxa9oFLayu3D9udZwb-25" value="" style="endArrow=classic;startArrow=classic;html=1;rounded=0;exitX=1;exitY=0.5;exitDx=0;exitDy=0;entryX=0;entryY=0.5;entryDx=0;entryDy=0;" parent="1" source="X1Nxa9oFLayu3D9udZwb-4" target="tifazpjDE2btZjvxW9_s-4" edge="1">
                    <mxGeometry width="50" height="50" relative="1" as="geometry">
                        <mxPoint x="336" y="253" as="sourcePoint"/>
                        <mxPoint x="677" y="385" as="targetPoint"/>
                    </mxGeometry>
                </mxCell>
                <mxCell id="X1Nxa9oFLayu3D9udZwb-22" value="" style="group" parent="1" connectable="0" vertex="1">
                    <mxGeometry x="250" y="123" width="80" height="100" as="geometry"/>
                </mxCell>
                <mxCell id="CwtibKsyJ3mc2L3lF5Jl-1" value="Node N4" style="rounded=0;whiteSpace=wrap;html=1;" parent="X1Nxa9oFLayu3D9udZwb-22" vertex="1">
                    <mxGeometry y="30" width="80" height="40" as="geometry"/>
                </mxCell>
                <mxCell id="z805YUdc8V3EaDz0sNSZ-1" value="0x1B" style="text;html=1;align=center;verticalAlign=middle;whiteSpace=wrap;rounded=0;" parent="X1Nxa9oFLayu3D9udZwb-22" vertex="1">
                    <mxGeometry x="10.5" width="60" height="30" as="geometry"/>
                </mxCell>
                <mxCell id="z805YUdc8V3EaDz0sNSZ-2" value="N4" style="text;html=1;align=center;verticalAlign=middle;whiteSpace=wrap;rounded=0;" parent="X1Nxa9oFLayu3D9udZwb-22" vertex="1">
                    <mxGeometry x="10" y="70" width="60" height="30" as="geometry"/>
                </mxCell>
                <mxCell id="X1Nxa9oFLayu3D9udZwb-26" value="" style="endArrow=classic;startArrow=classic;html=1;rounded=0;exitX=1;exitY=0.5;exitDx=0;exitDy=0;entryX=0;entryY=0.5;entryDx=0;entryDy=0;" parent="1" source="X1Nxa9oFLayu3D9udZwb-5" target="tifazpjDE2btZjvxW9_s-4" edge="1">
                    <mxGeometry width="50" height="50" relative="1" as="geometry">
                        <mxPoint x="336" y="353" as="sourcePoint"/>
                        <mxPoint x="677" y="385" as="targetPoint"/>
                    </mxGeometry>
                </mxCell>
                <mxCell id="tifazpjDE2btZjvxW9_s-6" value="0x11&lt;div&gt;R1&lt;/div&gt;" style="text;html=1;align=center;verticalAlign=middle;whiteSpace=wrap;rounded=0;" parent="1" vertex="1">
                    <mxGeometry x="487" y="330" width="60" height="30" as="geometry"/>
                </mxCell>
                <mxCell id="z0iwidRRonf5IgXrl-Hh-2" value="VPN TUNNEL" style="shape=cylinder3;whiteSpace=wrap;html=1;boundedLbl=1;backgroundOutline=1;size=15;rotation=25;" parent="1" vertex="1">
                    <mxGeometry x="624" y="384.12" width="18" height="225.77" as="geometry"/>
                </mxCell>
                <mxCell id="md6TsB0-JFqanLfSqcyW-1" value="Traceback Node" style="text;html=1;align=center;verticalAlign=middle;whiteSpace=wrap;rounded=0;" parent="1" vertex="1">
                    <mxGeometry x="878.5" y="573" width="101" height="40" as="geometry"/>
                </mxCell>
                <mxCell id="9rEfcrPoWA-2YmZUMabk-5" value="&lt;h1 style=&quot;margin-top: 0px;&quot;&gt;Port Mapping&lt;/h1&gt;&lt;p&gt;N1: 50001&lt;span style=&quot;white-space: pre;&quot;&gt;&#x9;N7: 50007&lt;span style=&quot;white-space: pre;&quot;&gt;&#x9;R2: 50013&lt;/span&gt;&lt;/span&gt;&lt;/p&gt;&lt;p&gt;N2: 50002&lt;span style=&quot;white-space: pre;&quot;&gt;&#x9;N8: 50008&lt;span style=&quot;white-space: pre;&quot;&gt;&#x9;R3: 50014&lt;/span&gt;&lt;/span&gt;&lt;/p&gt;&lt;p&gt;N3: 50003&lt;span style=&quot;white-space: pre;&quot;&gt;&#x9;N9: 50009&lt;span style=&quot;white-space: pre;&quot;&gt;&#x9;R4: 50015&lt;/span&gt;&lt;/span&gt;&lt;/p&gt;&lt;p&gt;N4: 50004&lt;span style=&quot;white-space: pre;&quot;&gt;&#x9;NA: 50010&lt;span style=&quot;white-space: pre;&quot;&gt;&#x9;R6: 50017&lt;/span&gt;&lt;/span&gt;&lt;/p&gt;&lt;p&gt;N5: 50005&lt;span style=&quot;white-space: pre;&quot;&gt;&#x9;NB: 50011&lt;span style=&quot;white-space: pre;&quot;&gt;&#x9;R7: 50018&lt;/span&gt;&lt;/span&gt;&lt;/p&gt;&lt;p&gt;N6: 50006&lt;span style=&quot;white-space: pre;&quot;&gt;&#x9;R1: 50012&lt;span style=&quot;white-space: pre;&quot;&gt;&#x9;R8: 50019&lt;/span&gt;&lt;/span&gt;&lt;/p&gt;" style="text;html=1;whiteSpace=wrap;overflow=hidden;rounded=0;" parent="1" vertex="1">
                    <mxGeometry x="65" y="539" width="369" height="208" as="geometry"/>
                </mxCell>
            </root>
        </mxGraphModel>
    </diagram>
    <diagram name="Old Version (Dont refence)" id="k66K5l7gvy8HTFe2ivYn">
        <mxGraphModel dx="711" dy="1518" grid="0" gridSize="10" guides="1" tooltips="1" connect="1" arrows="1" fold="1" page="1" pageScale="1" pageWidth="1169" pageHeight="827" math="0" shadow="0">
            <root>
                <mxCell id="EIZ1_yTKREPqsEUhItza-0"/>
                <mxCell id="EIZ1_yTKREPqsEUhItza-1" parent="EIZ1_yTKREPqsEUhItza-0"/>
                <mxCell id="EIZ1_yTKREPqsEUhItza-2" value="R" style="ellipse;whiteSpace=wrap;html=1;aspect=fixed;" parent="EIZ1_yTKREPqsEUhItza-1" vertex="1">
                    <mxGeometry x="547" y="202" width="50" height="50" as="geometry"/>
                </mxCell>
                <mxCell id="EIZ1_yTKREPqsEUhItza-3" value="" style="group" parent="EIZ1_yTKREPqsEUhItza-1" connectable="0" vertex="1">
                    <mxGeometry x="782" y="97" width="86" height="241" as="geometry"/>
                </mxCell>
                <mxCell id="EIZ1_yTKREPqsEUhItza-4" value="Node N2" style="rounded=0;whiteSpace=wrap;html=1;" parent="EIZ1_yTKREPqsEUhItza-3" vertex="1">
                    <mxGeometry x="6" y="18" width="80" height="40" as="geometry"/>
                </mxCell>
                <mxCell id="EIZ1_yTKREPqsEUhItza-5" value="0x2&lt;span style=&quot;background-color: transparent; color: light-dark(rgb(0, 0, 0), rgb(255, 255, 255));&quot;&gt;A&lt;/span&gt;" style="text;html=1;align=center;verticalAlign=middle;whiteSpace=wrap;rounded=0;" parent="EIZ1_yTKREPqsEUhItza-3" vertex="1">
                    <mxGeometry x="16" y="-15" width="60" height="30" as="geometry"/>
                </mxCell>
                <mxCell id="EIZ1_yTKREPqsEUhItza-6" value="N2" style="text;html=1;align=center;verticalAlign=middle;whiteSpace=wrap;rounded=0;" parent="EIZ1_yTKREPqsEUhItza-3" vertex="1">
                    <mxGeometry x="16" y="64" width="60" height="30" as="geometry"/>
                </mxCell>
                <mxCell id="EIZ1_yTKREPqsEUhItza-7" value="" style="group" parent="EIZ1_yTKREPqsEUhItza-3" connectable="0" vertex="1">
                    <mxGeometry x="6" y="90" width="80" height="146" as="geometry"/>
                </mxCell>
                <mxCell id="EIZ1_yTKREPqsEUhItza-8" value="Node N3" style="rounded=0;whiteSpace=wrap;html=1;" parent="EIZ1_yTKREPqsEUhItza-7" vertex="1">
                    <mxGeometry y="40" width="80" height="40" as="geometry"/>
                </mxCell>
                <mxCell id="EIZ1_yTKREPqsEUhItza-9" value="0x2B" style="text;html=1;align=center;verticalAlign=middle;whiteSpace=wrap;rounded=0;" parent="EIZ1_yTKREPqsEUhItza-7" vertex="1">
                    <mxGeometry x="12" y="8" width="60" height="30" as="geometry"/>
                </mxCell>
                <mxCell id="EIZ1_yTKREPqsEUhItza-10" value="N3" style="text;html=1;align=center;verticalAlign=middle;whiteSpace=wrap;rounded=0;" parent="EIZ1_yTKREPqsEUhItza-7" vertex="1">
                    <mxGeometry x="10" y="86" width="60" height="30" as="geometry"/>
                </mxCell>
                <mxCell id="EIZ1_yTKREPqsEUhItza-11" value="0x2C" style="text;html=1;align=center;verticalAlign=middle;whiteSpace=wrap;rounded=0;" parent="EIZ1_yTKREPqsEUhItza-7" vertex="1">
                    <mxGeometry x="10" y="116" width="60" height="30" as="geometry"/>
                </mxCell>
                <mxCell id="EIZ1_yTKREPqsEUhItza-12" value="0x21&lt;div&gt;R2&lt;/div&gt;" style="text;html=1;align=center;verticalAlign=middle;whiteSpace=wrap;rounded=0;" parent="EIZ1_yTKREPqsEUhItza-1" vertex="1">
                    <mxGeometry x="581" y="182" width="60" height="30" as="geometry"/>
                </mxCell>
                <mxCell id="EIZ1_yTKREPqsEUhItza-13" value="" style="endArrow=classic;startArrow=classic;html=1;rounded=0;exitX=1;exitY=0.5;exitDx=0;exitDy=0;" parent="EIZ1_yTKREPqsEUhItza-1" source="EIZ1_yTKREPqsEUhItza-2" edge="1">
                    <mxGeometry width="50" height="50" relative="1" as="geometry">
                        <mxPoint x="717" y="207" as="sourcePoint"/>
                        <mxPoint x="782" y="139" as="targetPoint"/>
                    </mxGeometry>
                </mxCell>
                <mxCell id="EIZ1_yTKREPqsEUhItza-14" value="" style="endArrow=classic;startArrow=classic;html=1;rounded=0;exitX=1;exitY=0.5;exitDx=0;exitDy=0;entryX=0;entryY=0.5;entryDx=0;entryDy=0;" parent="EIZ1_yTKREPqsEUhItza-1" source="EIZ1_yTKREPqsEUhItza-2" target="EIZ1_yTKREPqsEUhItza-8" edge="1">
                    <mxGeometry width="50" height="50" relative="1" as="geometry">
                        <mxPoint x="607" y="237" as="sourcePoint"/>
                        <mxPoint x="777" y="167" as="targetPoint"/>
                    </mxGeometry>
                </mxCell>
                <mxCell id="EIZ1_yTKREPqsEUhItza-15" value="" style="endArrow=classic;startArrow=classic;html=1;rounded=0;exitX=0.5;exitY=0;exitDx=0;exitDy=0;" parent="EIZ1_yTKREPqsEUhItza-1" source="EIZ1_yTKREPqsEUhItza-17" edge="1">
                    <mxGeometry width="50" height="50" relative="1" as="geometry">
                        <mxPoint x="567" y="407" as="sourcePoint"/>
                        <mxPoint x="567" y="247" as="targetPoint"/>
                    </mxGeometry>
                </mxCell>
                <mxCell id="EIZ1_yTKREPqsEUhItza-16" value="&lt;div&gt;&lt;br&gt;&lt;/div&gt;&lt;div&gt;&lt;br&gt;&lt;/div&gt;" style="edgeLabel;html=1;align=center;verticalAlign=middle;resizable=0;points=[];" parent="EIZ1_yTKREPqsEUhItza-15" connectable="0" vertex="1">
                    <mxGeometry x="0.0338" y="-1" relative="1" as="geometry">
                        <mxPoint as="offset"/>
                    </mxGeometry>
                </mxCell>
                <mxCell id="EIZ1_yTKREPqsEUhItza-17" value="R" style="ellipse;whiteSpace=wrap;html=1;aspect=fixed;" parent="EIZ1_yTKREPqsEUhItza-1" vertex="1">
                    <mxGeometry x="437" y="457" width="50" height="50" as="geometry"/>
                </mxCell>
                <mxCell id="EIZ1_yTKREPqsEUhItza-18" value="" style="group" parent="EIZ1_yTKREPqsEUhItza-1" connectable="0" vertex="1">
                    <mxGeometry x="214" y="423" width="223" height="120" as="geometry"/>
                </mxCell>
                <mxCell id="EIZ1_yTKREPqsEUhItza-19" value="Node N4" style="rounded=0;whiteSpace=wrap;html=1;" parent="EIZ1_yTKREPqsEUhItza-18" vertex="1">
                    <mxGeometry y="40" width="80" height="40" as="geometry"/>
                </mxCell>
                <mxCell id="EIZ1_yTKREPqsEUhItza-20" value="0x5A" style="text;html=1;align=center;verticalAlign=middle;whiteSpace=wrap;rounded=0;" parent="EIZ1_yTKREPqsEUhItza-18" vertex="1">
                    <mxGeometry x="10" width="60" height="30" as="geometry"/>
                </mxCell>
                <mxCell id="EIZ1_yTKREPqsEUhItza-21" value="N4" style="text;html=1;align=center;verticalAlign=middle;whiteSpace=wrap;rounded=0;" parent="EIZ1_yTKREPqsEUhItza-18" vertex="1">
                    <mxGeometry x="10" y="90" width="60" height="30" as="geometry"/>
                </mxCell>
                <mxCell id="EIZ1_yTKREPqsEUhItza-22" value="0x51&lt;div&gt;R5&lt;/div&gt;" style="text;html=1;align=center;verticalAlign=middle;whiteSpace=wrap;rounded=0;" parent="EIZ1_yTKREPqsEUhItza-18" vertex="1">
                    <mxGeometry x="153" y="30" width="60" height="30" as="geometry"/>
                </mxCell>
                <mxCell id="EIZ1_yTKREPqsEUhItza-23" style="edgeStyle=orthogonalEdgeStyle;rounded=0;orthogonalLoop=1;jettySize=auto;html=1;entryX=0;entryY=0.5;entryDx=0;entryDy=0;startArrow=block;startFill=1;" parent="EIZ1_yTKREPqsEUhItza-1" source="EIZ1_yTKREPqsEUhItza-24" target="EIZ1_yTKREPqsEUhItza-25" edge="1">
                    <mxGeometry relative="1" as="geometry"/>
                </mxCell>
                <mxCell id="EIZ1_yTKREPqsEUhItza-24" value="R" style="ellipse;whiteSpace=wrap;html=1;aspect=fixed;" parent="EIZ1_yTKREPqsEUhItza-1" vertex="1">
                    <mxGeometry x="718" y="457" width="50" height="50" as="geometry"/>
                </mxCell>
                <mxCell id="EIZ1_yTKREPqsEUhItza-25" value="Node N5" style="rounded=0;whiteSpace=wrap;html=1;" parent="EIZ1_yTKREPqsEUhItza-1" vertex="1">
                    <mxGeometry x="864" y="462" width="80" height="40" as="geometry"/>
                </mxCell>
                <mxCell id="EIZ1_yTKREPqsEUhItza-26" value="0x8A" style="text;html=1;align=center;verticalAlign=middle;whiteSpace=wrap;rounded=0;" parent="EIZ1_yTKREPqsEUhItza-1" vertex="1">
                    <mxGeometry x="880" y="430" width="60" height="30" as="geometry"/>
                </mxCell>
                <mxCell id="EIZ1_yTKREPqsEUhItza-27" value="N5" style="text;html=1;align=center;verticalAlign=middle;whiteSpace=wrap;rounded=0;" parent="EIZ1_yTKREPqsEUhItza-1" vertex="1">
                    <mxGeometry x="886" y="508" width="60" height="30" as="geometry"/>
                </mxCell>
                <mxCell id="EIZ1_yTKREPqsEUhItza-28" value="0x81&lt;div&gt;R8&lt;/div&gt;" style="text;html=1;align=center;verticalAlign=middle;whiteSpace=wrap;rounded=0;" parent="EIZ1_yTKREPqsEUhItza-1" vertex="1">
                    <mxGeometry x="765" y="439" width="60" height="30" as="geometry"/>
                </mxCell>
                <mxCell id="EIZ1_yTKREPqsEUhItza-29" value="" style="endArrow=classic;startArrow=classic;html=1;rounded=0;entryX=0;entryY=0.5;entryDx=0;entryDy=0;exitX=1;exitY=0.5;exitDx=0;exitDy=0;" parent="EIZ1_yTKREPqsEUhItza-1" source="EIZ1_yTKREPqsEUhItza-17" target="EIZ1_yTKREPqsEUhItza-24" edge="1">
                    <mxGeometry width="50" height="50" relative="1" as="geometry">
                        <mxPoint x="556" y="489" as="sourcePoint"/>
                        <mxPoint x="606" y="439" as="targetPoint"/>
                    </mxGeometry>
                </mxCell>
                <mxCell id="EIZ1_yTKREPqsEUhItza-30" value="&lt;div&gt;&lt;br&gt;&lt;/div&gt;&lt;div&gt;&lt;br&gt;&lt;/div&gt;" style="edgeLabel;html=1;align=center;verticalAlign=middle;resizable=0;points=[];" parent="EIZ1_yTKREPqsEUhItza-29" connectable="0" vertex="1">
                    <mxGeometry x="0.2278" y="4" relative="1" as="geometry">
                        <mxPoint as="offset"/>
                    </mxGeometry>
                </mxCell>
                <mxCell id="EIZ1_yTKREPqsEUhItza-31" value="0x31&lt;div&gt;R3&lt;/div&gt;" style="text;html=1;align=center;verticalAlign=middle;whiteSpace=wrap;rounded=0;" parent="EIZ1_yTKREPqsEUhItza-1" vertex="1">
                    <mxGeometry x="547" y="275" width="60" height="30" as="geometry"/>
                </mxCell>
                <mxCell id="EIZ1_yTKREPqsEUhItza-32" value="0x61&lt;div&gt;R6&lt;/div&gt;" style="text;html=1;align=center;verticalAlign=middle;whiteSpace=wrap;rounded=0;" parent="EIZ1_yTKREPqsEUhItza-1" vertex="1">
                    <mxGeometry x="503" y="446" width="60" height="30" as="geometry"/>
                </mxCell>
                <mxCell id="EIZ1_yTKREPqsEUhItza-33" value="0x71&lt;div&gt;R7&lt;/div&gt;" style="text;html=1;align=center;verticalAlign=middle;whiteSpace=wrap;rounded=0;" parent="EIZ1_yTKREPqsEUhItza-1" vertex="1">
                    <mxGeometry x="660" y="441" width="60" height="30" as="geometry"/>
                </mxCell>
                <mxCell id="EIZ1_yTKREPqsEUhItza-34" value="0x41&lt;div&gt;R4&lt;/div&gt;" style="text;html=1;align=center;verticalAlign=middle;whiteSpace=wrap;rounded=0;" parent="EIZ1_yTKREPqsEUhItza-1" vertex="1">
                    <mxGeometry x="423" y="409" width="60" height="30" as="geometry"/>
                </mxCell>
                <mxCell id="EIZ1_yTKREPqsEUhItza-35" value="" style="endArrow=classic;startArrow=classic;html=1;rounded=0;entryX=0;entryY=0.5;entryDx=0;entryDy=0;exitX=1;exitY=0.5;exitDx=0;exitDy=0;" parent="EIZ1_yTKREPqsEUhItza-1" source="EIZ1_yTKREPqsEUhItza-61" target="EIZ1_yTKREPqsEUhItza-2" edge="1">
                    <mxGeometry width="50" height="50" relative="1" as="geometry">
                        <mxPoint x="475" y="299" as="sourcePoint"/>
                        <mxPoint x="505" y="149" as="targetPoint"/>
                    </mxGeometry>
                </mxCell>
                <mxCell id="EIZ1_yTKREPqsEUhItza-36" value="" style="endArrow=classic;startArrow=classic;html=1;rounded=0;entryX=0;entryY=0.5;entryDx=0;entryDy=0;exitX=1;exitY=0.5;exitDx=0;exitDy=0;" parent="EIZ1_yTKREPqsEUhItza-1" source="EIZ1_yTKREPqsEUhItza-68" target="EIZ1_yTKREPqsEUhItza-2" edge="1">
                    <mxGeometry width="50" height="50" relative="1" as="geometry">
                        <mxPoint x="375" y="159" as="sourcePoint"/>
                        <mxPoint x="564" y="219" as="targetPoint"/>
                    </mxGeometry>
                </mxCell>
                <mxCell id="EIZ1_yTKREPqsEUhItza-37" value="" style="endArrow=classic;startArrow=classic;html=1;rounded=0;entryX=0;entryY=0.5;entryDx=0;entryDy=0;" parent="EIZ1_yTKREPqsEUhItza-1" source="EIZ1_yTKREPqsEUhItza-19" target="EIZ1_yTKREPqsEUhItza-17" edge="1">
                    <mxGeometry width="50" height="50" relative="1" as="geometry">
                        <mxPoint x="404" y="633" as="sourcePoint"/>
                        <mxPoint x="429" y="487" as="targetPoint"/>
                    </mxGeometry>
                </mxCell>
                <mxCell id="EIZ1_yTKREPqsEUhItza-38" value="" style="endArrow=classic;startArrow=classic;html=1;rounded=0;" parent="EIZ1_yTKREPqsEUhItza-1" edge="1">
                    <mxGeometry width="50" height="50" relative="1" as="geometry">
                        <mxPoint x="597" y="230" as="sourcePoint"/>
                        <mxPoint x="778" y="325" as="targetPoint"/>
                    </mxGeometry>
                </mxCell>
                <mxCell id="EIZ1_yTKREPqsEUhItza-39" value="Node N7" style="rounded=0;whiteSpace=wrap;html=1;" parent="EIZ1_yTKREPqsEUhItza-1" vertex="1">
                    <mxGeometry x="785" y="333" width="80" height="40" as="geometry"/>
                </mxCell>
                <mxCell id="EIZ1_yTKREPqsEUhItza-40" value="N7" style="text;html=1;align=center;verticalAlign=middle;whiteSpace=wrap;rounded=0;" parent="EIZ1_yTKREPqsEUhItza-1" vertex="1">
                    <mxGeometry x="795" y="383" width="60" height="30" as="geometry"/>
                </mxCell>
                <mxCell id="EIZ1_yTKREPqsEUhItza-41" value="Client" style="text;html=1;align=center;verticalAlign=middle;whiteSpace=wrap;rounded=0;" parent="EIZ1_yTKREPqsEUhItza-1" vertex="1">
                    <mxGeometry x="886" y="119" width="60" height="30" as="geometry"/>
                </mxCell>
                <mxCell id="EIZ1_yTKREPqsEUhItza-42" value="Server" style="text;html=1;align=center;verticalAlign=middle;whiteSpace=wrap;rounded=0;" parent="EIZ1_yTKREPqsEUhItza-1" vertex="1">
                    <mxGeometry x="891" y="231" width="60" height="30" as="geometry"/>
                </mxCell>
                <mxCell id="EIZ1_yTKREPqsEUhItza-43" value="Hijacker" style="text;html=1;align=center;verticalAlign=middle;whiteSpace=wrap;rounded=0;" parent="EIZ1_yTKREPqsEUhItza-1" vertex="1">
                    <mxGeometry x="895" y="338" width="60" height="30" as="geometry"/>
                </mxCell>
                <mxCell id="EIZ1_yTKREPqsEUhItza-44" value="" style="group" parent="EIZ1_yTKREPqsEUhItza-1" connectable="0" vertex="1">
                    <mxGeometry x="126" y="245" width="80" height="100" as="geometry"/>
                </mxCell>
                <mxCell id="EIZ1_yTKREPqsEUhItza-45" value="Node N10" style="rounded=0;whiteSpace=wrap;html=1;" parent="EIZ1_yTKREPqsEUhItza-44" vertex="1">
                    <mxGeometry y="30" width="80" height="40" as="geometry"/>
                </mxCell>
                <mxCell id="EIZ1_yTKREPqsEUhItza-46" value="0x1F" style="text;html=1;align=center;verticalAlign=middle;whiteSpace=wrap;rounded=0;" parent="EIZ1_yTKREPqsEUhItza-44" vertex="1">
                    <mxGeometry x="10" width="60" height="30" as="geometry"/>
                </mxCell>
                <mxCell id="EIZ1_yTKREPqsEUhItza-47" value="NA" style="text;html=1;align=center;verticalAlign=middle;whiteSpace=wrap;rounded=0;" parent="EIZ1_yTKREPqsEUhItza-44" vertex="1">
                    <mxGeometry x="10" y="70" width="60" height="30" as="geometry"/>
                </mxCell>
                <mxCell id="EIZ1_yTKREPqsEUhItza-48" value="" style="group" parent="EIZ1_yTKREPqsEUhItza-1" connectable="0" vertex="1">
                    <mxGeometry x="126" y="145" width="80" height="100" as="geometry"/>
                </mxCell>
                <mxCell id="EIZ1_yTKREPqsEUhItza-49" value="Node N9" style="rounded=0;whiteSpace=wrap;html=1;" parent="EIZ1_yTKREPqsEUhItza-48" vertex="1">
                    <mxGeometry y="30" width="80" height="40" as="geometry"/>
                </mxCell>
                <mxCell id="EIZ1_yTKREPqsEUhItza-50" value="0x1E" style="text;html=1;align=center;verticalAlign=middle;whiteSpace=wrap;rounded=0;" parent="EIZ1_yTKREPqsEUhItza-48" vertex="1">
                    <mxGeometry x="10" width="60" height="30" as="geometry"/>
                </mxCell>
                <mxCell id="EIZ1_yTKREPqsEUhItza-51" value="N9" style="text;html=1;align=center;verticalAlign=middle;whiteSpace=wrap;rounded=0;" parent="EIZ1_yTKREPqsEUhItza-48" vertex="1">
                    <mxGeometry x="10" y="70" width="60" height="30" as="geometry"/>
                </mxCell>
                <mxCell id="EIZ1_yTKREPqsEUhItza-52" value="" style="group" parent="EIZ1_yTKREPqsEUhItza-1" connectable="0" vertex="1">
                    <mxGeometry x="124" y="60" width="80" height="100" as="geometry"/>
                </mxCell>
                <mxCell id="EIZ1_yTKREPqsEUhItza-53" value="Node N8" style="rounded=0;whiteSpace=wrap;html=1;" parent="EIZ1_yTKREPqsEUhItza-52" vertex="1">
                    <mxGeometry y="30" width="80" height="40" as="geometry"/>
                </mxCell>
                <mxCell id="EIZ1_yTKREPqsEUhItza-54" value="0x1D" style="text;html=1;align=center;verticalAlign=middle;whiteSpace=wrap;rounded=0;" parent="EIZ1_yTKREPqsEUhItza-52" vertex="1">
                    <mxGeometry x="10" width="60" height="30" as="geometry"/>
                </mxCell>
                <mxCell id="EIZ1_yTKREPqsEUhItza-55" value="N8" style="text;html=1;align=center;verticalAlign=middle;whiteSpace=wrap;rounded=0;" parent="EIZ1_yTKREPqsEUhItza-52" vertex="1">
                    <mxGeometry x="10" y="70" width="60" height="30" as="geometry"/>
                </mxCell>
                <mxCell id="EIZ1_yTKREPqsEUhItza-56" value="" style="group" parent="EIZ1_yTKREPqsEUhItza-1" connectable="0" vertex="1">
                    <mxGeometry x="187" y="299" width="80" height="100" as="geometry"/>
                </mxCell>
                <mxCell id="EIZ1_yTKREPqsEUhItza-57" value="Node N7" style="rounded=0;whiteSpace=wrap;html=1;" parent="EIZ1_yTKREPqsEUhItza-56" vertex="1">
                    <mxGeometry y="30" width="80" height="40" as="geometry"/>
                </mxCell>
                <mxCell id="EIZ1_yTKREPqsEUhItza-58" value="0x1C" style="text;html=1;align=center;verticalAlign=middle;whiteSpace=wrap;rounded=0;" parent="EIZ1_yTKREPqsEUhItza-56" vertex="1">
                    <mxGeometry x="10" width="60" height="30" as="geometry"/>
                </mxCell>
                <mxCell id="EIZ1_yTKREPqsEUhItza-59" value="N7" style="text;html=1;align=center;verticalAlign=middle;whiteSpace=wrap;rounded=0;" parent="EIZ1_yTKREPqsEUhItza-56" vertex="1">
                    <mxGeometry x="10" y="70" width="60" height="30" as="geometry"/>
                </mxCell>
                <mxCell id="EIZ1_yTKREPqsEUhItza-60" value="" style="group" parent="EIZ1_yTKREPqsEUhItza-1" connectable="0" vertex="1">
                    <mxGeometry x="285.5" width="80" height="100" as="geometry"/>
                </mxCell>
                <mxCell id="EIZ1_yTKREPqsEUhItza-61" value="Node N1" style="rounded=0;whiteSpace=wrap;html=1;" parent="EIZ1_yTKREPqsEUhItza-60" vertex="1">
                    <mxGeometry y="30" width="80" height="40" as="geometry"/>
                </mxCell>
                <mxCell id="EIZ1_yTKREPqsEUhItza-62" value="0x1A" style="text;html=1;align=center;verticalAlign=middle;whiteSpace=wrap;rounded=0;" parent="EIZ1_yTKREPqsEUhItza-60" vertex="1">
                    <mxGeometry x="10" width="60" height="30" as="geometry"/>
                </mxCell>
                <mxCell id="EIZ1_yTKREPqsEUhItza-63" value="N1" style="text;html=1;align=center;verticalAlign=middle;whiteSpace=wrap;rounded=0;" parent="EIZ1_yTKREPqsEUhItza-60" vertex="1">
                    <mxGeometry x="10" y="70" width="60" height="30" as="geometry"/>
                </mxCell>
                <mxCell id="EIZ1_yTKREPqsEUhItza-64" value="" style="endArrow=classic;startArrow=classic;html=1;rounded=0;entryX=0;entryY=0.5;entryDx=0;entryDy=0;exitX=1;exitY=0.5;exitDx=0;exitDy=0;" parent="EIZ1_yTKREPqsEUhItza-1" source="EIZ1_yTKREPqsEUhItza-57" target="EIZ1_yTKREPqsEUhItza-2" edge="1">
                    <mxGeometry width="50" height="50" relative="1" as="geometry">
                        <mxPoint x="376" y="170" as="sourcePoint"/>
                        <mxPoint x="557" y="237" as="targetPoint"/>
                    </mxGeometry>
                </mxCell>
                <mxCell id="EIZ1_yTKREPqsEUhItza-65" value="" style="endArrow=classic;startArrow=classic;html=1;rounded=0;exitX=1;exitY=0.5;exitDx=0;exitDy=0;entryX=0;entryY=0.5;entryDx=0;entryDy=0;" parent="EIZ1_yTKREPqsEUhItza-1" source="EIZ1_yTKREPqsEUhItza-73" target="EIZ1_yTKREPqsEUhItza-2" edge="1">
                    <mxGeometry width="50" height="50" relative="1" as="geometry">
                        <mxPoint x="376" y="209" as="sourcePoint"/>
                        <mxPoint x="550" y="156" as="targetPoint"/>
                    </mxGeometry>
                </mxCell>
                <mxCell id="EIZ1_yTKREPqsEUhItza-66" value="" style="endArrow=classic;startArrow=classic;html=1;rounded=0;exitX=1;exitY=0.5;exitDx=0;exitDy=0;entryX=0;entryY=0.5;entryDx=0;entryDy=0;" parent="EIZ1_yTKREPqsEUhItza-1" source="EIZ1_yTKREPqsEUhItza-49" target="EIZ1_yTKREPqsEUhItza-2" edge="1">
                    <mxGeometry width="50" height="50" relative="1" as="geometry">
                        <mxPoint x="216" y="105" as="sourcePoint"/>
                        <mxPoint x="557" y="237" as="targetPoint"/>
                    </mxGeometry>
                </mxCell>
                <mxCell id="EIZ1_yTKREPqsEUhItza-67" value="" style="group" parent="EIZ1_yTKREPqsEUhItza-1" connectable="0" vertex="1">
                    <mxGeometry x="130" y="-25" width="80" height="100" as="geometry"/>
                </mxCell>
                <mxCell id="EIZ1_yTKREPqsEUhItza-68" value="Node N6" style="rounded=0;whiteSpace=wrap;html=1;" parent="EIZ1_yTKREPqsEUhItza-67" vertex="1">
                    <mxGeometry y="30" width="80" height="40" as="geometry"/>
                </mxCell>
                <mxCell id="EIZ1_yTKREPqsEUhItza-69" value="0x1B" style="text;html=1;align=center;verticalAlign=middle;whiteSpace=wrap;rounded=0;" parent="EIZ1_yTKREPqsEUhItza-67" vertex="1">
                    <mxGeometry x="10.5" width="60" height="30" as="geometry"/>
                </mxCell>
                <mxCell id="EIZ1_yTKREPqsEUhItza-70" value="N6" style="text;html=1;align=center;verticalAlign=middle;whiteSpace=wrap;rounded=0;" parent="EIZ1_yTKREPqsEUhItza-67" vertex="1">
                    <mxGeometry x="10" y="70" width="60" height="30" as="geometry"/>
                </mxCell>
                <mxCell id="EIZ1_yTKREPqsEUhItza-71" value="" style="endArrow=classic;startArrow=classic;html=1;rounded=0;exitX=1;exitY=0.5;exitDx=0;exitDy=0;entryX=0;entryY=0.5;entryDx=0;entryDy=0;" parent="EIZ1_yTKREPqsEUhItza-1" source="EIZ1_yTKREPqsEUhItza-45" target="EIZ1_yTKREPqsEUhItza-2" edge="1">
                    <mxGeometry width="50" height="50" relative="1" as="geometry">
                        <mxPoint x="216" y="205" as="sourcePoint"/>
                        <mxPoint x="557" y="237" as="targetPoint"/>
                    </mxGeometry>
                </mxCell>
                <mxCell id="EIZ1_yTKREPqsEUhItza-72" value="" style="endArrow=classic;startArrow=classic;html=1;rounded=0;exitX=1;exitY=0.5;exitDx=0;exitDy=0;entryX=0;entryY=0.5;entryDx=0;entryDy=0;" parent="EIZ1_yTKREPqsEUhItza-1" source="EIZ1_yTKREPqsEUhItza-53" target="EIZ1_yTKREPqsEUhItza-73" edge="1">
                    <mxGeometry width="50" height="50" relative="1" as="geometry">
                        <mxPoint x="206" y="95" as="sourcePoint"/>
                        <mxPoint x="547" y="227" as="targetPoint"/>
                    </mxGeometry>
                </mxCell>
                <mxCell id="EIZ1_yTKREPqsEUhItza-73" value="0x11&lt;div&gt;R1&lt;/div&gt;" style="text;html=1;align=center;verticalAlign=middle;whiteSpace=wrap;rounded=0;" parent="EIZ1_yTKREPqsEUhItza-1" vertex="1">
                    <mxGeometry x="483" y="202.5" width="60" height="30" as="geometry"/>
                </mxCell>
            </root>
        </mxGraphModel>
    </diagram>
</mxfile>